<svg width="24.000000" height="24.000000" viewBox="0 0 24 24" fill="none" xmlns="http://www.w3.org/2000/svg" xmlns:xlink="http://www.w3.org/1999/xlink">
	<g clip-path="url(#clip3_28)">
		<path id="多边形 1" d="M19.55 5.14L15.21 2.56C14.54 2.17 13.7 2.65 13.7 3.42L13.7 8.57C13.7 9.34 14.54 9.82 15.21 9.43L19.55 6.85C20.2 6.47 20.2 5.52 19.55 5.14Z" fill="currentColor" fill-opacity="1.000000" fill-rule="evenodd"/>
		<path id="矢量 1" d="M2 10.86Q2.41 7.93 4.09 6.44Q5.71 5 8.35 5L17.1 5L17.1 7L8.35 7Q6.47 7 5.42 7.93Q4.29 8.94 3.99 11.13L2 10.86ZM17.08 5.02L17.1 5C17.66 5 18.1 5.44 18.1 6C18.1 6.56 17.66 7 17.1 7L17.08 6.98L17.08 5.02ZM3.97 11.11L3.99 11.13C3.91 11.69 3.41 12.06 2.86 11.99C2.3 11.91 1.93 11.41 2 10.86L2.03 10.84L3.97 11.11Z" fill="currentColor" fill-opacity="1.000000" fill-rule="evenodd"/>
		<path id="多边形 1" d="M4.44 18.86L8.78 21.43C9.45 21.82 10.29 21.34 10.29 20.57L10.29 15.42C10.29 14.65 9.45 14.17 8.78 14.56L4.44 17.14C3.79 17.52 3.79 18.47 4.44 18.86Z" fill="currentColor" fill-opacity="1.000000" fill-rule="evenodd"/>
		<path id="矢量 1" d="M21 13C20.51 16.5 18.56 18 15.64 18L6.89 18" stroke="currentColor" stroke-opacity="1.000000" stroke-width="2.000000" stroke-linejoin="round" stroke-linecap="round"/>
	</g>
</svg>
