<svg width="24.000000" height="24.000000" viewBox="0 0 24 24" fill="none" xmlns="http://www.w3.org/2000/svg" xmlns:xlink="http://www.w3.org/1999/xlink">
	<g clip-path="url(#clip3_85)">
		<path id="多边形 1" d="M20.28 5.14L15.94 2.56C15.27 2.17 14.43 2.65 14.43 3.42L14.43 8.57C14.43 9.34 15.27 9.82 15.94 9.43L20.28 6.85C20.93 6.47 20.93 5.52 20.28 5.14Z" fill="currentColor" fill-opacity="1.000000" fill-rule="evenodd"/>
		<path id="多边形 2" d="M20.28 16.14L15.94 13.56C15.27 13.17 14.43 13.65 14.43 14.42L14.43 19.57C14.43 20.34 15.27 20.82 15.94 20.43L20.28 17.86C20.93 17.47 20.93 16.52 20.28 16.14Z" fill="currentColor" fill-opacity="1.000000" fill-rule="evenodd"/>
		<path id="矢量 2" d="M15.5 6C13.83 6 11.5 7.5 10 11C8.5 14.5 6.16 16.66 4 17" stroke="currentColor" stroke-opacity="1.000000" stroke-width="2.000000" stroke-linecap="round"/>
		<path id="矢量 2" d="M4 6C5.19 6 6.73 6.77 8.06 8.5M11.81 14.73C12.97 16.02 14.26 16.8 15.5 17" stroke="currentColor" stroke-opacity="1.000000" stroke-width="2.000000" stroke-linecap="round"/>
	</g>
</svg>
